<svg id="Group_2" data-name="Group 2" xmlns="http://www.w3.org/2000/svg" xmlns:xlink="http://www.w3.org/1999/xlink" viewBox="0 0 1366 769"><defs><style>.cls-1,.cls-3,.cls-4{fill:#3f51b5;}.cls-2,.cls-8{opacity:0.3;}.cls-2,.cls-3,.cls-4,.cls-5,.cls-6,.cls-7,.cls-8{isolation:isolate;}.cls-2{fill:url(#linear-gradient);}.cls-3{opacity:0.14;}.cls-4{opacity:0.19;}.cls-5,.cls-6,.cls-7{fill:#fff;}.cls-5{opacity:0.2;}.cls-6{opacity:0.12;}.cls-7{opacity:0.13;}.cls-8{fill:url(#linear-gradient-2);}</style><linearGradient id="linear-gradient" x1="363.51" y1="625.17" x2="362.53" y2="624.12" gradientTransform="matrix(547.93, 0, 0, -769, -197718.25, 480770)" gradientUnits="userSpaceOnUse"><stop offset="0" stop-color="#fff" stop-opacity="0.6"/><stop offset="0.69" stop-color="#fff" stop-opacity="0.05"/><stop offset="1" stop-color="#fff" stop-opacity="0"/></linearGradient><linearGradient id="linear-gradient-2" x1="361.1" y1="625.01" x2="362.1" y2="625.01" gradientTransform="matrix(191.35, 0, 0, -281.86, -68459.64, 176374.81)" xlink:href="#linear-gradient"/></defs><title>bg_hero_1</title><path id="Path_2" data-name="Path 2" class="cls-1" d="M825.49,769H1366V0H787.67c-34,19.44-80.6,54.27-112.17,112.5-46.16,85.13-57.33,214.89,2,262,67.78,53.82,176-41.14,240,6,71.74,52.87,78.81,222.85-4,323C887.85,734.51,856.57,755.2,825.49,769Z"/><path id="Path_3" data-name="Path 3" class="cls-2" d="M1230,181c15.29,107.84,67.58,118.23,80,206,17.15,121.22-59.33,265-124,264-48-.72-26.67-130.62-132-228-77.4-71.56-197.52-104.33-228-70-5.27,5.93-7.57,13.54-7.93,22.16,36.81-9,72.15-14.77,99.43,5.34,51.19,37.73,69.44,135.08,45.62,224.14A993.77,993.77,0,0,1,1036,685c31.9,39.34,47.91,65.3,60.59,84H1366V0H1256C1223,45,1222.51,128.16,1230,181Z"/><path id="Path_4" data-name="Path 4" class="cls-3" d="M354.42,250.87c3.09-22-44.15-65.25-90.1-80-13-4.19-88.4-28.37-114.08,36.36-5.54,14-16.08,47-5.81,60.59,9.57,12.71,56.68,9.71,122.8-13.33C336.94,230.23,352.53,264.34,354.42,250.87Z"/><path id="Path_5" data-name="Path 5" class="cls-1" d="M302.5,640.5C188.14,626.27,61.9,670.11,0,718.08V769H568.73C482.87,728.31,422.31,655.41,302.5,640.5Z"/><path id="Path_6" data-name="Path 6" class="cls-4" d="M0,675.84V755H523.73C437.87,714.31,377.31,641.41,257.5,626.5,166.35,615.16,67.65,640.71,0,675.84Z"/><circle id="Ellipse_1" data-name="Ellipse 1" class="cls-5" cx="1107.5" cy="86.5" r="11.5"/><circle id="Ellipse_2" data-name="Ellipse 2" class="cls-6" cx="752" cy="365" r="3"/><circle id="Ellipse_3" data-name="Ellipse 3" class="cls-5" cx="1126" cy="412" r="8"/><circle id="Ellipse_4" data-name="Ellipse 4" class="cls-7" cx="782" cy="42" r="7"/><path id="Path_7" data-name="Path 7" class="cls-8" d="M816,287c27.11-49.53,13.91-119.49-20-138-25.71-14-48.9,9.38-72-6-22.23-14.8-19-48.64-19.67-73.32A271.56,271.56,0,0,0,675.5,112.5C657,146.58,644.16,187.81,639.17,228A108,108,0,0,1,662,260c21,43.72,3.72,69.38,23,84C712.77,365.06,786.61,340.7,816,287Z"/></svg>